<svg width="111" height="111" viewBox="0 0 111 111" fill="none" xmlns="http://www.w3.org/2000/svg">
<rect x="0.5" y="0.5" width="110" height="110" rx="20" fill="white"/>
<path d="M58.6115 47.7521C62.9105 47.7521 66.4069 44.2667 66.4069 39.9568V32.1614C66.4069 27.8624 62.9215 24.3661 58.6115 24.3661H27.4412C23.1422 24.3661 19.6459 27.8514 19.6459 32.1614V63.3317L35.2255 47.7521H58.6005H58.6115Z" fill="#341291"/>
<path d="M83.5478 55.5476H52.3775C48.0785 55.5476 44.5822 59.033 44.5822 63.3429V71.1383C44.5822 75.4372 48.0675 78.9336 52.3775 78.9336H75.7525L91.3321 94.5133V63.3429C91.3321 59.044 87.8468 55.5476 83.5368 55.5476H83.5478Z" fill="#571EFA"/>
</svg>
