<svg xmlns="http://www.w3.org/2000/svg" width="20" height="20" viewBox="0 0 20 20" fill="none" class="portal-help__icon"><mask id="mask0_406_2944" maskUnits="userSpaceOnUse" x="0" y="0" width="20" height="20" style="mask-type: alpha;"><rect width="20" height="20" fill="#D9D9D9"></rect></mask><g mask="url(#mask0_406_2944)"><path d="M10 18.3327L9.79167 15.8327H9.58333C7.61111 15.8327 5.9375 15.1452 4.5625 13.7702C3.1875 12.3952 2.5 10.7216 2.5 8.74935C2.5 6.77713 3.1875 5.10352 4.5625 3.72852C5.9375 2.35352 7.61111 1.66602 9.58333 1.66602C10.5694 1.66602 11.4896 1.85004 12.3438 2.2181C13.1979 2.58615 13.9479 3.0931 14.5938 3.73893C15.2396 4.38477 15.7465 5.13477 16.1146 5.98893C16.4826 6.8431 16.6667 7.76324 16.6667 8.74935C16.6667 9.79102 16.4965 10.791 16.1563 11.7493C15.816 12.7077 15.3507 13.5966 14.7604 14.416C14.1701 15.2355 13.4688 15.9785 12.6563 16.6452C11.8438 17.3118 10.9583 17.8743 10 18.3327ZM11.6667 15.291C12.6528 14.4577 13.4549 13.482 14.0729 12.3639C14.691 11.2459 15 10.041 15 8.74935C15 7.23546 14.4757 5.95421 13.4271 4.9056C12.3785 3.85699 11.0972 3.33268 9.58333 3.33268C8.06944 3.33268 6.78819 3.85699 5.73958 4.9056C4.69097 5.95421 4.16667 7.23546 4.16667 8.74935C4.16667 10.2632 4.69097 11.5445 5.73958 12.5931C6.78819 13.6417 8.06944 14.166 9.58333 14.166H11.6667V15.291ZM9.5625 13.3118C9.79861 13.3118 10 13.2285 10.1667 13.0618C10.3333 12.8952 10.4167 12.6938 10.4167 12.4577C10.4167 12.2216 10.3333 12.0202 10.1667 11.8535C10 11.6868 9.79861 11.6035 9.5625 11.6035C9.32639 11.6035 9.125 11.6868 8.95833 11.8535C8.79167 12.0202 8.70833 12.2216 8.70833 12.4577C8.70833 12.6938 8.79167 12.8952 8.95833 13.0618C9.125 13.2285 9.32639 13.3118 9.5625 13.3118ZM8.95833 10.666H10.2083C10.2083 10.2493 10.25 9.95768 10.3333 9.79102C10.4167 9.62435 10.6806 9.31879 11.125 8.87435C11.375 8.62435 11.5833 8.35352 11.75 8.06185C11.9167 7.77018 12 7.45768 12 7.12435C12 6.41602 11.7604 5.88477 11.2813 5.5306C10.8021 5.17643 10.2361 4.99935 9.58333 4.99935C8.97222 4.99935 8.45833 5.16949 8.04167 5.50977C7.625 5.85004 7.33333 6.26324 7.16667 6.74935L8.33333 7.20768C8.40278 6.97157 8.53472 6.73893 8.72917 6.50977C8.92361 6.2806 9.20833 6.16602 9.58333 6.16602C9.95833 6.16602 10.2396 6.27018 10.4271 6.47852C10.6146 6.68685 10.7083 6.91602 10.7083 7.16602C10.7083 7.40213 10.6389 7.61393 10.5 7.80143C10.3611 7.98893 10.1944 8.1799 10 8.37435C9.51389 8.79102 9.21875 9.12088 9.11458 9.36393C9.01042 9.60699 8.95833 10.041 8.95833 10.666Z" fill="white"></path></g></svg>