<svg width="82" height="16" viewBox="0 0 82 16" fill="none" xmlns="http://www.w3.org/2000/svg">
<path d="M4.43538 3.90479C7.13036 3.90479 8.8526 5.88162 8.8526 8.3028C8.8526 10.724 7.13036 12.7008 4.43538 12.7008C1.7404 12.7008 0 10.724 0 8.3028C0 5.88162 1.72225 3.90479 4.43538 3.90479ZM4.43538 11.6272C6.49881 11.6272 7.59132 10.0928 7.59132 8.3028C7.59132 6.51276 6.49881 4.97844 4.43538 4.97844C2.37195 4.97844 1.2631 6.51276 1.2631 8.3028C1.2631 10.0928 2.3538 11.6272 4.43538 11.6272Z" fill="black"/>
<path d="M10.4922 4.07526H11.7553V6.22258C12.3524 4.80796 13.6155 3.90479 15.4575 3.90479C17.8294 3.90479 19.4319 5.69482 19.4319 8.31912C19.4319 10.9434 17.8294 12.7008 15.4575 12.7008C13.581 12.7008 12.336 11.7632 11.7553 10.383V15.6334H10.4922V4.07526ZM15.0637 11.6272C16.7696 11.6272 18.1688 10.5698 18.1688 8.31912C18.1688 6.06843 16.7696 4.97844 15.0637 4.97844C13.3578 4.97844 11.8061 6.08656 11.8061 8.31912C11.8061 10.5517 13.3759 11.6272 15.0637 11.6272Z" fill="black"/>
<path d="M24.7871 3.90465C27.2098 3.90465 28.8304 5.42264 28.8304 8.01248V8.52392H22.0249C22.0757 10.2976 22.9795 11.6597 24.856 11.6597C26.4077 11.6597 27.3133 10.8417 27.62 9.57945H28.8649C28.5074 11.0793 27.4838 12.6989 24.8905 12.6989C22.1447 12.6989 20.8145 10.6531 20.8145 8.18115C20.8145 5.45347 22.4006 3.90283 24.7889 3.90283L24.7871 3.90465ZM27.5837 7.5355C27.4639 5.88148 26.355 4.94385 24.7689 4.94385C23.2844 4.94385 22.1756 5.89781 22.0394 7.5355H27.5837Z" fill="black"/>
<path d="M30.6035 4.07526H31.8666V6.42752C32.3276 4.85875 33.5217 3.90479 35.3801 3.90479C37.2384 3.90479 38.4162 5.1326 38.4162 7.34884V12.5303H37.1368V7.4504C37.1368 5.69482 36.4544 4.97844 34.9536 4.97844C33.0426 4.97844 31.8666 6.58168 31.8666 8.8487V12.5303H30.6035V4.07526Z" fill="black"/>
<path d="M40.5488 0.51123H44.9679C46.2183 0.51123 47.3217 0.665386 48.2781 0.971887C49.2327 1.27839 50.0148 1.87507 50.6228 2.76192C51.2308 3.64878 51.5356 4.89836 51.5356 6.51248C51.5356 8.1266 51.2308 9.39431 50.6228 10.2794C50.0148 11.1662 49.2327 11.7629 48.2781 12.0694C47.3217 12.3759 46.2201 12.5301 44.9679 12.5301H40.5488V0.51123ZM44.9679 10.127C45.8317 10.127 46.5232 10.0581 47.0404 9.92207C47.5576 9.78605 47.9786 9.4596 48.3035 8.94091C48.6283 8.42403 48.7898 7.61334 48.7898 6.51248C48.7898 5.41162 48.6247 4.61544 48.2962 4.0913C47.9659 3.56898 47.5449 3.23891 47.0331 3.10288C46.5213 2.96686 45.8335 2.89795 44.9697 2.89795H43.2801V10.127H44.9697H44.9679Z" fill="black"/>
<path d="M53.3158 5.82205C53.6969 5.15646 54.225 4.64865 54.9019 4.2968C55.5789 3.94496 56.3556 3.76904 57.2303 3.76904C58.664 3.76904 59.7838 4.1499 60.5913 4.91162C61.3989 5.67334 61.8018 6.72523 61.8018 8.06549V8.78187H55.3538C55.3992 9.39487 55.5934 9.87548 55.9346 10.2219C56.2757 10.5683 56.7422 10.7424 57.3338 10.7424C57.8455 10.7424 58.2684 10.6354 58.6041 10.4178C58.9399 10.2019 59.1522 9.89543 59.2448 9.49644H61.82C61.6839 10.4504 61.2247 11.2248 60.4462 11.8142C59.6676 12.4055 58.635 12.7011 57.3501 12.7011C56.4064 12.7011 55.5879 12.5107 54.8929 12.1298C54.1996 11.7489 53.6679 11.2176 53.2977 10.5356C52.9274 9.85372 52.7441 9.07024 52.7441 8.18338C52.7441 7.29652 52.9347 6.48765 53.3158 5.82205ZM59.2774 7.38176C59.2321 6.83586 59.0306 6.41511 58.6713 6.11949C58.3138 5.82387 57.8492 5.67696 57.2811 5.67696C56.7131 5.67696 56.2721 5.82568 55.9255 6.11949C55.5789 6.41511 55.3829 6.83586 55.3375 7.38176H59.2774Z" fill="black"/>
<path d="M64.1075 11.8647C63.3561 11.308 62.9805 10.49 62.9805 9.4091H65.5738C65.5738 9.89878 65.7281 10.2597 66.0348 10.4918C66.3415 10.7258 66.8133 10.8419 67.4503 10.8419C67.9167 10.8419 68.2543 10.782 68.4648 10.6623C68.6753 10.5426 68.7806 10.3522 68.7806 10.091C68.7806 9.90966 68.7189 9.76094 68.5937 9.6485C68.4684 9.53424 68.2688 9.43812 67.9966 9.35832L65.3688 8.64194C64.788 8.49504 64.2889 8.23025 63.8679 7.8494C63.4469 7.46854 63.2364 6.94259 63.2364 6.27155C63.2364 5.46449 63.5685 4.84605 64.2345 4.4126C64.9005 3.98096 65.8297 3.76514 67.0239 3.76514C68.3432 3.76514 69.3722 4.02992 70.1108 4.55769C70.8495 5.08545 71.2197 5.85079 71.2197 6.85009H68.6263C68.6263 6.02127 68.0982 5.60596 67.0402 5.60596C66.6645 5.60596 66.3687 5.66943 66.1527 5.79276C65.9368 5.9179 65.8279 6.08294 65.8279 6.28787C65.8279 6.63972 66.14 6.89543 66.7662 7.05503L68.7788 7.55015C69.5628 7.74421 70.1925 8.04164 70.6643 8.44608C71.1362 8.8487 71.3721 9.41454 71.3721 10.1418C71.3721 10.9724 71.04 11.6054 70.374 12.0425C69.7079 12.4796 68.7225 12.699 67.414 12.699C65.9586 12.699 64.8552 12.4197 64.1038 11.8629L64.1075 11.8647Z" fill="black"/>
<path d="M72.8066 0H75.4V7.26171L78.8282 3.93736H82.0004L77.7193 8.11411L81.9841 12.5303H78.8282L75.4 8.91573V12.5303H72.8066V0Z" fill="black"/>
</svg>
