<?xml version="1.0" encoding="UTF-8"?>
<svg xmlns="http://www.w3.org/2000/svg" version="1.1" viewBox="0 0 510.5 135.5">
  <defs>
    <style>
      .cls-1 {
        fill: #fff;
      }

      .cls-2 {
        fill: #927afa;
      }

      .cls-3 {
        display: none;
      }

      .cls-4 {
        fill: #571efa;
      }
    </style>
  </defs>
  <!-- Generator: Adobe Illustrator 28.7.1, SVG Export Plug-In . SVG Version: 1.2.0 Build 142)  -->
  <g>
    <g id="Ebene_1">
      <g class="cls-3">
        <path class="cls-2" d="M-27.4,99.8v2.1c0,9-7.3,16.3-16.3,16.3h-38.3c-9,0-16.3-7.3-16.3-16.3v-38.3c0-9,7.3-16.3,16.3-16.3h2.1v52.4H-27.4h0Z"/>
        <path class="cls-4" d="M-26.7,87.1h-40.4v-44.7c0-15.2,12.4-27.6,27.6-27.6h12.8c17.6,0,31.9,14.3,31.9,31.9v8.5c0,17.6-14.3,31.9-31.9,31.9h0ZM-48.6,68.6h22c7.4,0,13.5-6,13.5-13.5v-8.5c0-7.4-6-13.5-13.5-13.5h-12.8c-5.1,0-9.2,4.1-9.2,9.2v26.2h0Z"/>
      </g>
      <g>
        <path class="cls-1" d="M57.3,50.3c14.9,0,24.3,10.9,24.3,24.2s-9.5,24.3-24.3,24.3-24.4-10.9-24.4-24.2,9.5-24.2,24.4-24.3ZM57.3,92.8c11.4,0,17.4-8.5,17.4-18.3s-6-18.3-17.4-18.3-17.5,8.5-17.5,18.3,6,18.3,17.5,18.3Z"/>
        <path class="cls-1" d="M90.7,51.2h7v11.8c3.3-7.8,10.3-12.8,20.4-12.8s21.9,9.9,21.9,24.3-8.8,24.2-21.9,24.2-17.2-5.2-20.4-12.8v28.9h-7v-63.7h0ZM115.9,92.8c9.4,0,17.1-5.8,17.1-18.2s-7.7-18.4-17.1-18.4-17.9,6.1-17.9,18.4,8.7,18.2,17.9,18.2Z"/>
        <path class="cls-1" d="M169.5,50.3c13.4,0,22.3,8.4,22.3,22.7v2.8h-37.5c.3,9.8,5.3,17.3,15.6,17.3s13.5-4.5,15.2-11.5h6.9c-2,8.3-7.6,17.2-21.9,17.2s-22.5-11.3-22.5-24.9,8.7-23.6,21.9-23.6h0ZM184.9,70.3c-.7-9.1-6.8-14.3-15.5-14.3s-14.3,5.3-15,14.3h30.6Z"/>
        <path class="cls-1" d="M201.5,51.2h7v13c2.5-8.7,9.1-13.9,19.4-13.9s16.7,6.8,16.7,19v28.6h-7v-28c0-9.7-3.8-13.6-12-13.6s-17,8.8-17,21.3v20.3h-7v-46.6h0Z"/>
        <path class="cls-1" d="M256.3,31.6h24.4c6.9,0,13,.8,18.2,2.5,5.3,1.7,9.6,5,12.9,9.9s5,11.8,5,20.7-1.7,15.9-5,20.8c-3.4,4.9-7.7,8.2-12.9,9.9-5.3,1.7-11.3,2.5-18.2,2.5h-24.4s0-66.3,0-66.3ZM280.7,84.6c4.8,0,8.6-.4,11.4-1.1s5.2-2.6,7-5.4c1.8-2.8,2.7-7.3,2.7-13.4s-.9-10.5-2.7-13.3c-1.8-2.9-4.1-4.7-7-5.4s-6.6-1.1-11.4-1.1h-9.3v39.9h9.3,0Z"/>
        <path class="cls-1" d="M326.7,60.8c2.1-3.7,5-6.5,8.7-8.4s8-2.9,12.8-2.9c7.9,0,14.1,2.1,18.5,6.3,4.5,4.2,6.7,10,6.7,17.4v3.9h-35.5c.2,3.4,1.3,6,3.2,7.9s4.5,2.9,7.7,2.9,5.1-.6,7-1.8c1.9-1.2,3-2.9,3.5-5.1h14.2c-.8,5.3-3.3,9.5-7.6,12.8-4.3,3.3-10,4.9-17.1,4.9s-9.7-1.1-13.5-3.1c-3.8-2.1-6.8-5-8.8-8.8s-3-8.1-3-13,1-9.3,3.1-13ZM359.5,69.4c-.2-3-1.4-5.3-3.3-7-2-1.6-4.5-2.4-7.7-2.4s-5.6.8-7.5,2.4c-1.9,1.6-3,3.9-3.2,7h21.7Z"/>
        <path class="cls-1" d="M386.1,94.1c-4.1-3.1-6.2-7.6-6.2-13.5h14.3c0,2.7.8,4.7,2.5,6,1.7,1.3,4.3,1.9,7.8,1.9s4.4-.3,5.6-1c1.2-.7,1.7-1.7,1.7-3.2s-.3-1.8-1-2.4c-.7-.6-1.8-1.2-3.3-1.6l-14.5-3.9c-3.2-.8-6-2.3-8.3-4.4-2.3-2.1-3.5-5-3.5-8.7s1.8-7.9,5.5-10.2c3.7-2.4,8.8-3.6,15.4-3.6s12.9,1.5,17,4.4,6.1,7.1,6.1,12.6h-14.3c0-4.6-2.9-6.9-8.7-6.9s-3.7.3-4.9,1c-1.2.7-1.8,1.6-1.8,2.7,0,1.9,1.7,3.3,5.2,4.2l11.1,2.7c4.3,1.1,7.8,2.7,10.4,4.9,2.6,2.2,3.9,5.3,3.9,9.3s-1.8,8.1-5.5,10.5-9.1,3.6-16.3,3.6-14.1-1.5-18.2-4.6h0Z"/>
        <path class="cls-1" d="M434.1,28.7h14.3v40l18.9-18.3h17.5l-23.6,23,23.5,24.4h-17.4l-18.9-19.9v19.9h-14.3V28.7h0Z"/>
      </g>
    </g>
  </g>
</svg>