<svg xmlns="http://www.w3.org/2000/svg" width="20" height="20" viewBox="0 0 20 20" fill="none" class="portal-help__icon"><mask id="mask0_406_2939" maskUnits="userSpaceOnUse" x="0" y="0" width="20" height="20" style="mask-type: alpha;"><rect width="20" height="20" fill="#D9D9D9"></rect></mask><g mask="url(#mask0_406_2939)"><path d="M9.9987 16.666C9.33203 16.1382 8.60981 15.7285 7.83203 15.4368C7.05425 15.1452 6.2487 14.9993 5.41536 14.9993C4.83203 14.9993 4.25911 15.0757 3.69661 15.2285C3.13411 15.3813 2.59592 15.5966 2.08203 15.8743C1.79036 16.0271 1.50911 16.0202 1.23828 15.8535C0.967448 15.6868 0.832031 15.4438 0.832031 15.1243V5.08268C0.832031 4.9299 0.870226 4.78407 0.946615 4.64518C1.023 4.50629 1.13759 4.40213 1.29036 4.33268C1.92925 3.99935 2.59592 3.74935 3.29036 3.58268C3.98481 3.41602 4.69314 3.33268 5.41536 3.33268C6.22092 3.33268 7.00912 3.43685 7.77995 3.64518C8.55078 3.85352 9.29037 4.16602 9.9987 4.58268V14.666C10.707 14.2216 11.4501 13.8882 12.2279 13.666C13.0056 13.4438 13.7904 13.3327 14.582 13.3327C15.082 13.3327 15.5716 13.3743 16.0508 13.4577C16.5299 13.541 17.0126 13.666 17.4987 13.8327V3.83268C17.707 3.90213 17.9119 3.97504 18.1133 4.05143C18.3147 4.12782 18.5126 4.22157 18.707 4.33268C18.8598 4.40213 18.9744 4.50629 19.0508 4.64518C19.1272 4.78407 19.1654 4.9299 19.1654 5.08268V15.1243C19.1654 15.4438 19.0299 15.6868 18.7591 15.8535C18.4883 16.0202 18.207 16.0271 17.9154 15.8743C17.4015 15.5966 16.8633 15.3813 16.3008 15.2285C15.7383 15.0757 15.1654 14.9993 14.582 14.9993C13.7487 14.9993 12.9431 15.1452 12.1654 15.4368C11.3876 15.7285 10.6654 16.1382 9.9987 16.666ZM11.6654 12.4993V4.58268L15.832 0.416016V8.74935L11.6654 12.4993ZM8.33203 13.8535V5.60352C7.8737 5.40907 7.398 5.25977 6.90495 5.1556C6.41189 5.05143 5.91536 4.99935 5.41536 4.99935C4.90148 4.99935 4.40148 5.04796 3.91536 5.14518C3.42925 5.2424 2.95703 5.38824 2.4987 5.58268V13.8535C2.98481 13.673 3.46745 13.541 3.94661 13.4577C4.42578 13.3743 4.91536 13.3327 5.41536 13.3327C5.91536 13.3327 6.40495 13.3743 6.88412 13.4577C7.36328 13.541 7.84592 13.673 8.33203 13.8535Z" fill="white"></path></g></svg>