<svg xmlns="http://www.w3.org/2000/svg" width="21" height="20" viewBox="0 0 21 20" fill="none" class="portal-help__icon"><mask id="mask0_592_612" maskUnits="userSpaceOnUse" x="0" y="0" width="21" height="20" style="mask-type: alpha;"><rect x="0.644531" width="20" height="20" fill="#D9D9D9"></rect></mask><g mask="url(#mask0_592_612)"><path d="M18.9792 18.3337L15.6458 15.0003H3.97917C3.52083 15.0003 3.12847 14.8371 2.80208 14.5107C2.47569 14.1844 2.3125 13.792 2.3125 13.3337V3.33366C2.3125 2.87533 2.47569 2.48296 2.80208 2.15658C3.12847 1.83019 3.52083 1.66699 3.97917 1.66699H17.3125C17.7708 1.66699 18.1632 1.83019 18.4896 2.15658C18.816 2.48296 18.9792 2.87533 18.9792 3.33366V18.3337ZM3.97917 13.3337H16.3542L17.3125 14.2712V3.33366H3.97917V13.3337Z" fill="white"></path></g></svg>