<svg xmlns="http://www.w3.org/2000/svg" height="24px" viewBox="0 -960 960 960" width="24px" fill="#5e27dd"><path d="M480-480ZM224.62-160q-27.62 0-46.12-18.5Q160-197 160-224.62v-510.76q0-27.62 18.5-46.12Q197-800 224.62-800h280v40h-280q-10.77 0-17.7 6.92-6.92 6.93-6.92 17.7v510.76q0 10.77 6.92 17.7 6.93 6.92 17.7 6.92h510.76q10.77 0 17.7-6.92 6.92-6.93 6.92-17.7v-280h40v280q0 27.62-18.5 46.12Q763-160 735.38-160H224.62Zm46.15-144.62h418.46L560-476.92 440-325.38l-80-96.16-89.23 116.92ZM680-600v-80h-80v-40h80v-80h40v80h80v40h-80v80h-40Z"/></svg>