<svg width="111" height="111" viewBox="0 0 111 111" fill="none" xmlns="http://www.w3.org/2000/svg">
<rect x="0.5" y="0.5" width="110" height="110" rx="20" fill="white"/>
<path d="M26.6716 52.436C33.1265 52.436 38.3591 47.2033 38.3591 40.7485C38.3591 34.2936 33.1265 29.061 26.6716 29.061C20.2168 29.061 14.9841 34.2936 14.9841 40.7485C14.9841 47.2033 20.2168 52.436 26.6716 52.436Z" fill="#571EFA"/>
<path d="M92.9043 36.8455H46.1543V44.6408H92.9043V36.8455Z" fill="#341291"/>
<path d="M26.6716 82.0341C33.1265 82.0341 38.3591 76.8014 38.3591 70.3466C38.3591 63.8917 33.1265 58.6591 26.6716 58.6591C20.2168 58.6591 14.9841 63.8917 14.9841 70.3466C14.9841 76.8014 20.2168 82.0341 26.6716 82.0341Z" fill="#571EFA"/>
<path d="M92.9043 66.4543H46.1543V74.2497H92.9043V66.4543Z" fill="#341291"/>
</svg>
