<svg width="111" height="111" viewBox="0 0 111 111" fill="none" xmlns="http://www.w3.org/2000/svg">
<rect x="0.5" y="0.5" width="110" height="110" rx="20" fill="white"/>
<path d="M24.3296 86.7069L24.3296 24.3772H16.5343L16.5343 86.7069H24.3296Z" fill="#571EFA"/>
<path d="M86.8353 59.4397H55.6759C51.3707 59.4397 47.8806 62.9298 47.8806 67.235V75.0194C47.8806 79.3246 51.3707 82.8147 55.6759 82.8147H86.8353C91.1405 82.8147 94.6306 79.3246 94.6306 75.0194V67.235C94.6306 62.9298 91.1405 59.4397 86.8353 59.4397Z" fill="#571EFA"/>
<path d="M63.4603 28.2803H39.9203C35.6151 28.2803 32.125 31.7704 32.125 36.0756V43.8599C32.125 48.1652 35.6151 51.6553 39.9203 51.6553H63.4603C67.7655 51.6553 71.2556 48.1652 71.2556 43.8599V36.0756C71.2556 31.7704 67.7655 28.2803 63.4603 28.2803Z" fill="#341291"/>
</svg>
