<svg width="111" height="111" viewBox="0 0 111 111" fill="none" xmlns="http://www.w3.org/2000/svg">
<rect x="0.5" y="0.5" width="110" height="110" rx="20" fill="white"/>
<path d="M33.6863 53.9861C40.1411 53.9861 45.3738 48.7534 45.3738 42.2986C45.3738 35.8438 40.1411 30.6111 33.6863 30.6111C27.2315 30.6111 21.9988 35.8438 21.9988 42.2986C21.9988 48.7534 27.2315 53.9861 33.6863 53.9861Z" fill="#571EFA"/>
<path d="M77.3137 53.9861C83.7685 53.9861 89.0012 48.7534 89.0012 42.2986C89.0012 35.8438 83.7685 30.6111 77.3137 30.6111C70.8589 30.6111 65.6262 35.8438 65.6262 42.2986C65.6262 48.7534 70.8589 53.9861 77.3137 53.9861Z" fill="#341291"/>
<path d="M14.9841 80.4836C14.9841 70.1594 23.3512 61.7814 33.6863 61.7814C44.0215 61.7814 52.3885 70.1484 52.3885 80.4836H14.9841Z" fill="#571EFA"/>
<path d="M58.6116 80.4836C58.6116 70.1594 66.9786 61.7814 77.3138 61.7814C87.6489 61.7814 96.016 70.1484 96.016 80.4836H58.6116Z" fill="#341291"/>
</svg>
