<svg width="111" height="111" viewBox="0 0 111 111" fill="none" xmlns="http://www.w3.org/2000/svg">
<rect x="0.5" y="0.5" width="110" height="110" rx="20" fill="white"/>
<path d="M68.6778 80.1145V81.6565C68.6778 88.1647 63.4498 93.4567 57.0203 93.4567H29.6574C23.2279 93.4567 17.9999 88.1647 17.9999 81.6565V53.9586C17.9999 47.4503 23.2279 42.1583 29.6574 42.1583H31.1807V80.1218H68.6849L68.6778 80.1145Z" fill="#8E75FA"/>
<path d="M69.1856 70.877H40.2993V38.553C40.2993 27.5202 49.1676 18.5433 60.067 18.5433H69.1927C81.7656 18.5433 91.9999 28.9029 91.9999 41.6298V47.7833C91.9999 60.5102 81.7656 70.8697 69.1927 70.8697L69.1856 70.877ZM53.473 57.5348H69.1856C74.4922 57.5348 78.8119 53.1622 78.8119 47.7905V41.637C78.8119 36.2654 74.4922 31.8928 69.1856 31.8928H60.0598C56.4267 31.8928 53.473 34.8827 53.473 38.5603V57.542V57.5348Z" fill="#571EFA"/>
</svg>
